Coordinates
version=1
nRows=12
nColumns=42
inDegrees=yes

Units are S.I. units (second, meters, Newtons, ...)
If the header above contains a line with 'inDegrees', this indicates whether rotational values are in degrees (yes) or radians (no).

endheader
time	pelvis_tilt	pelvis_list	pelvis_rotation	pelvis_tx	pelvis_ty	pelvis_tz	hip_flexion_r	hip_adduction_r	hip_rotation_r	knee_angle_r	knee_angle_r_beta	ankle_angle_r	subtalar_angle_r	mtp_angle_r	hip_flexion_l	hip_adduction_l	hip_rotation_l	knee_angle_l	knee_angle_l_beta	ankle_angle_l	subtalar_angle_l	mtp_angle_l	lumbar_extension	lumbar_bending	lumbar_rotation	sh_tx_r	sh_ty_r	sh_tz_r	sh_plane_elev_r	sh_elev_r	sh_axial_rot_r	elbow_flex_r	pro_sup_r	sh_tx_l	sh_ty_l	sh_tz_l	sh_plane_elev_l	sh_elev_l	sh_axial_rot_l	elbow_flex_l	pro_sup_l
      0.00000000	     -4.56005718	     -1.57733702	      2.97881678	      0.25255060	      0.95089657	     -0.06000366	      2.24814712	     -4.80907522	     -4.60849892	      3.87119350	      0.06756507	     -4.90422352	    -17.31759575	     -4.88735654	      4.14470719	     -5.77644173	     -3.68595659	      9.02475616	      0.15751171	     14.28925719	     -2.77522004	     -4.88735654	      0.63777809	      0.70367335	      0.35765947	     -0.00265494	     -0.01775553	     -0.00533064	      6.00191680	      7.15404066	      0.31608095	     27.50226132	     80.43407514	     -0.00092094	     -0.01747529	     -0.00497870	     11.92170866	      6.96411030	     -0.90373011	     17.89113679	     70.38703757
      0.01666670	     -6.88864399	     -1.77548383	      3.59101133	      0.25497271	      0.94678697	     -0.06112122	      4.48580956	     -4.69699364	     -5.07823098	      3.77457181	      0.06587871	     -1.48285885	    -14.16590249	     -5.95078872	      7.23280622	     -5.62031621	     -3.40625484	      8.87279469	      0.15485948	     14.44671501	     -0.72896755	     -5.95078872	      3.88625988	      0.68058926	     -0.71436381	     -0.00448789	     -0.01718016	     -0.00563838	     -2.39740880	      5.53200073	      1.69410707	     27.98141169	     81.32708304	     -0.00351486	     -0.01704964	     -0.00532097	      2.35623852	      5.61798376	     -1.08897125	     18.45117534	     73.04195219
      0.03333330	     -7.32551687	     -1.11929589	      3.76059795	      0.25505031	      0.94761034	     -0.06075515	      4.41041195	     -5.58030873	     -6.18123429	      2.84107099	      0.04958604	     -0.80884775	    -12.81277773	     -5.95001886	      7.11233898	     -4.96722369	     -3.89525650	      7.65811735	      0.13365936	     13.85117046	      0.62242525	     -5.95001886	      4.29176908	     -0.31009145	     -1.44633377	     -0.00586465	     -0.01673709	     -0.00555564	     -2.94556246	      4.71352874	      0.82152921	     27.88809212	     80.75634956	     -0.00625568	     -0.01668149	     -0.00515047	      2.25422059	      6.23680684	     -1.29734645	     18.74711406	     72.85937358
      0.05000000	     -7.04363202	     -0.70452434	      4.07636820	      0.25525957	      0.94813374	     -0.06094361	      3.67940703	     -6.11376103	     -6.77659502	      2.25552710	      0.03936637	     -0.13788841	    -11.99575854	     -6.05000727	      6.08519478	     -4.49484964	     -3.59362742	      6.25705744	      0.10920625	     13.07747880	      0.82701463	     -6.05000727	      3.90875194	     -0.89796258	     -2.02676406	     -0.00586864	     -0.01701634	     -0.00551916	     -2.82158733	      4.35995613	      1.05529861	     27.84588418	     79.32608809	     -0.00801716	     -0.01689517	     -0.00487964	      2.47134563	      6.77559922	     -1.47135340	     18.95371294	     71.94725448
      0.06666670	     -6.71829580	     -0.36770935	      4.20406348	      0.25492137	      0.94860148	     -0.06062833	      3.05323600	     -6.43898904	     -7.16418563	      1.85682415	      0.03240770	      0.52021710	    -11.48452248	     -6.38618300	      5.22933942	     -4.15309508	     -3.08024048	      5.27927757	      0.09214078	     12.47521331	      0.72634653	     -6.38618300	      3.43267324	     -1.28512633	     -2.22896555	     -0.00515465	     -0.01717738	     -0.00539971	     -2.06975425	      4.24464523	      1.72884947	     27.92314608	     77.13227550	     -0.00794253	     -0.01703115	     -0.00474861	      2.28657477	      7.01937355	     -1.89053572	     19.63822133	     69.92914821
      0.08333330	     -6.47689886	     -0.18962940	      4.23152835	      0.25508649	      0.94912707	     -0.06071690	      2.65087326	     -6.55258403	     -7.28616861	      1.60486341	      0.02801015	      1.00781656	    -11.18538456	     -6.43002682	      4.63986029	     -3.94253150	     -2.63560014	      4.59939665	      0.08027462	     12.07227234	      0.45392073	     -6.43002682	      3.22261325	     -1.43084033	     -2.24286860	     -0.00399886	     -0.01727210	     -0.00525489	     -1.34352599	      4.28302595	      2.28787914	     27.90025247	     77.01266186	     -0.00688455	     -0.01706986	     -0.00462443	      2.07985746	      7.13065812	     -1.89741646	     20.03029668	     69.20407223
      0.10000000	     -6.22604103	     -0.01161898	      4.26321857	      0.25472764	      0.95205455	     -0.06052463	      2.25620264	     -6.68589162	     -7.47839765	      1.39845166	      0.02440759	      1.16396872	    -11.15488409	     -6.54381071	      4.16822373	     -3.75017281	     -2.29773424	      4.15298392	      0.07248324	     11.71448198	      0.18146359	     -6.54381071	      2.94950513	     -1.55124160	     -2.20910404	     -0.00273179	     -0.01727244	     -0.00511605	     -0.05931805	      4.33603617	      2.20452223	     27.80669579	     76.16159549	     -0.00555457	     -0.01705721	     -0.00448334	      2.06202133	      7.23097668	     -2.11884059	     20.26703606	     67.97562145
      0.11666670	     -6.04548951	      0.09179294	      4.27258539	      0.25468033	      0.94926319	     -0.06016996	      2.00298848	     -6.73255628	     -7.45776087	      1.27256426	      0.02221044	      1.27763132	    -11.19569180	     -6.73985257	      3.86950546	     -3.64697125	     -2.05242190	      3.92635945	      0.06852790	     11.61511673	      0.01793054	     -6.73985257	      2.77656580	     -1.61196574	     -2.24400476	     -0.00164169	     -0.01719705	     -0.00507397	      1.53496737	      4.44568192	      1.81715184	     27.60804472	     74.61858975	     -0.00457727	     -0.01704377	     -0.00434205	      2.73328234	      7.49963837	     -2.77840150	     20.56841652	     66.40320252
      0.13333330	     -5.97808146	      0.13872730	      4.41734972	      0.24991866	      0.94639012	     -0.06383012	      1.98769397	     -6.86031055	     -7.68666786	      1.27067228	      0.02217742	      1.25895830	    -11.21309477	     -7.04060973	      3.85584096	     -3.48726643	     -1.49639029	      3.81870311	      0.06664894	     11.48706552	     -0.46532379	     -7.04060973	      2.68889593	     -1.53354684	     -2.73453144	      0.00166727	     -0.01715201	     -0.00491221	      1.60331020	      4.57934058	      2.26372400	     27.72700630	     76.99358067	     -0.00323278	     -0.01705809	     -0.00429066	      0.74357840	      7.49791409	     -2.31165581	     21.65459420	     65.17303259
      0.15000000	     -5.85568765	      0.21619190	      4.51956712	      0.25011940	      0.94976212	     -0.06418788	      1.90918923	     -6.99146093	     -7.65626673	      1.25400513	      0.02188652	      1.21066614	    -11.29106693	     -7.08530989	      3.77854455	     -3.33347667	     -1.09606886	      3.71558159	      0.06484913	     11.32248885	     -0.78876786	     -7.08530989	      2.47804798	     -1.51185965	     -2.81908396	      0.00233315	     -0.01711762	     -0.00479190	      2.61458092	      4.72174173	      1.98577281	     27.58682785	     76.09812018	     -0.00139523	     -0.01704538	     -0.00430557	      1.28163855	      7.74901775	     -3.03617078	     22.47815122	     64.52205766
      0.16666670	     -5.67350285	      0.18300071	      4.68942057	      0.25391753	      0.94730749	     -0.05935105	      1.63475515	     -6.85911303	     -7.68262338	      1.20281524	      0.02099309	      1.17149863	    -11.40372318	     -7.17704621	      3.62055932	     -3.44063512	     -0.77947706	      3.73131554	      0.06512374	     11.21860178	     -0.96957249	     -7.17704621	      2.28131017	     -1.50294756	     -3.10521148	      0.00302862	     -0.01704724	     -0.00485879	      3.75824579	      4.76307026	      1.58457254	     27.40856455	     75.10742935	     -0.00061226	     -0.01695597	     -0.00421892	      1.60741976	      8.35111333	     -4.11850915	     23.47314911	     63.70257374
      0.18333330	     -5.64040468	      0.17723580	      4.72628330	      0.25007621	      0.94781965	     -0.06375495	      1.59272881	     -6.92505624	     -7.79523854	      1.25042495	      0.02182403	      1.15972570	    -11.46551994	     -7.17743381	      3.62675730	     -3.40938347	     -0.75141786	      3.73603373	      0.06520609	     11.17877404	     -0.94449875	     -7.17743381	      2.41503478	     -1.32295257	     -3.15198596	      0.00339939	     -0.01697771	     -0.00476070	      3.74907189	      4.81388707	      1.59902171	     27.37579337	     75.12066278	      0.00247284	     -0.01701660	     -0.00409911	      1.58613349	      8.63302076	     -4.13345751	     23.61516037	     63.70095154
